<svg xmlns="http://www.w3.org/2000/svg" xmlns:xlink="http://www.w3.org/1999/xlink" width="500" zoomAndPan="magnify" viewBox="0 0 375 374.999991" height="500" preserveAspectRatio="xMidYMid meet" version="1.0"><defs><clipPath id="9dba6023f3"><path d="M 158.691406 187.488281 L 216.183594 187.488281 L 216.183594 199.054688 L 158.691406 199.054688 Z M 158.691406 187.488281 " clip-rule="nonzero"/></clipPath><clipPath id="c13ffe0079"><path d="M 209.484375 199.054688 L 216.183594 187.5 L 158.796875 187.5 L 165.492188 199.054688 L 209.484375 199.054688 " clip-rule="nonzero"/></clipPath><clipPath id="21210ac887"><path d="M 158.691406 175.929688 L 216.183594 175.929688 L 216.183594 187.5 L 158.691406 187.5 Z M 158.691406 175.929688 " clip-rule="nonzero"/></clipPath><clipPath id="95086f813d"><path d="M 209.484375 187.5 L 216.183594 175.941406 L 158.796875 175.941406 L 165.492188 187.5 L 209.484375 187.5 " clip-rule="nonzero"/></clipPath></defs><g clip-path="url(#9dba6023f3)"><g clip-path="url(#c13ffe0079)"><path fill="#000000" d="M 216.183594 199.054688 L 158.808594 199.054688 L 158.808594 187.488281 L 216.183594 187.488281 Z M 216.183594 199.054688 " fill-opacity="1" fill-rule="nonzero"/></g></g><g clip-path="url(#21210ac887)"><g clip-path="url(#95086f813d)"><path fill="#000000" d="M 216.183594 187.5 L 158.808594 187.5 L 158.808594 175.929688 L 216.183594 175.929688 Z M 216.183594 187.5 " fill-opacity="1" fill-rule="nonzero"/></g></g></svg>