<svg xmlns="http://www.w3.org/2000/svg" xmlns:xlink="http://www.w3.org/1999/xlink" width="500" zoomAndPan="magnify" viewBox="0 0 375 374.999991" height="500" preserveAspectRatio="xMidYMid meet" version="1.0"><defs><g/></defs><g fill="#000000" fill-opacity="1"><g transform="translate(168.370893, 191.624987)"><g><path d="M 5.65625 -6.015625 L 3.390625 0 L 2.4375 0 L 0.15625 -6.015625 L 1.234375 -6.015625 L 2.46875 -2.53125 C 2.707031 -1.875 2.847656 -1.429688 2.890625 -1.203125 L 2.90625 -1.203125 C 2.96875 -1.441406 3.070312 -1.765625 3.21875 -2.171875 L 4.625 -6.015625 Z M 5.65625 -6.015625 "/></g></g></g><g fill="#000000" fill-opacity="1"><g transform="translate(176.643261, 191.624987)"><g><path d="M 6 -2.75 L 1.5 -2.75 C 1.539062 -2.082031 1.726562 -1.570312 2.0625 -1.21875 C 2.40625 -0.875 2.828125 -0.703125 3.328125 -0.703125 C 3.722656 -0.703125 4.050781 -0.800781 4.3125 -1 C 4.570312 -1.207031 4.773438 -1.519531 4.921875 -1.9375 L 5.96875 -1.8125 C 5.800781 -1.1875 5.488281 -0.703125 5.03125 -0.359375 C 4.582031 -0.0234375 4.015625 0.140625 3.328125 0.140625 C 2.429688 0.140625 1.726562 -0.132812 1.21875 -0.6875 C 0.707031 -1.238281 0.453125 -1.992188 0.453125 -2.953125 C 0.453125 -3.898438 0.695312 -4.671875 1.1875 -5.265625 C 1.6875 -5.859375 2.382812 -6.15625 3.28125 -6.15625 C 3.71875 -6.15625 4.140625 -6.054688 4.546875 -5.859375 C 4.953125 -5.671875 5.296875 -5.34375 5.578125 -4.875 C 5.859375 -4.414062 6 -3.707031 6 -2.75 Z M 4.953125 -3.59375 C 4.910156 -4.195312 4.71875 -4.632812 4.375 -4.90625 C 4.039062 -5.175781 3.675781 -5.3125 3.28125 -5.3125 C 2.800781 -5.3125 2.40625 -5.148438 2.09375 -4.828125 C 1.78125 -4.515625 1.597656 -4.101562 1.546875 -3.59375 Z M 4.953125 -3.59375 "/></g></g></g><g fill="#000000" fill-opacity="1"><g transform="translate(185.567085, 191.624987)"><g><path d="M 4.015625 -5.828125 L 3.671875 -4.890625 C 3.410156 -5.035156 3.160156 -5.109375 2.921875 -5.109375 C 2.546875 -5.109375 2.257812 -4.9375 2.0625 -4.59375 C 1.863281 -4.25 1.765625 -3.769531 1.765625 -3.15625 L 1.765625 0 L 0.75 0 L 0.75 -6.015625 L 1.671875 -6.015625 L 1.671875 -5.109375 L 1.6875 -5.109375 C 2.019531 -5.804688 2.445312 -6.15625 2.96875 -6.15625 C 3.3125 -6.15625 3.660156 -6.046875 4.015625 -5.828125 Z M 4.015625 -5.828125 "/></g></g></g><g fill="#000000" fill-opacity="1"><g transform="translate(191.902083, 191.624987)"><g><path d="M 4.125 -4.328125 C 4.082031 -4.660156 3.953125 -4.90625 3.734375 -5.0625 C 3.515625 -5.226562 3.207031 -5.3125 2.8125 -5.3125 C 2.425781 -5.3125 2.113281 -5.242188 1.875 -5.109375 C 1.632812 -4.984375 1.515625 -4.796875 1.515625 -4.546875 C 1.515625 -4.304688 1.609375 -4.132812 1.796875 -4.03125 C 1.984375 -3.925781 2.359375 -3.800781 2.921875 -3.65625 C 3.554688 -3.488281 4.03125 -3.34375 4.34375 -3.21875 C 4.664062 -3.09375 4.910156 -2.914062 5.078125 -2.6875 C 5.253906 -2.46875 5.34375 -2.160156 5.34375 -1.765625 C 5.34375 -1.222656 5.125 -0.769531 4.6875 -0.40625 C 4.25 -0.0390625 3.664062 0.140625 2.9375 0.140625 C 2.175781 0.140625 1.578125 -0.0195312 1.140625 -0.34375 C 0.710938 -0.664062 0.453125 -1.148438 0.359375 -1.796875 L 1.375 -1.953125 C 1.425781 -1.535156 1.582031 -1.222656 1.84375 -1.015625 C 2.101562 -0.804688 2.460938 -0.703125 2.921875 -0.703125 C 3.367188 -0.703125 3.710938 -0.796875 3.953125 -0.984375 C 4.191406 -1.171875 4.3125 -1.394531 4.3125 -1.65625 C 4.3125 -1.84375 4.253906 -1.988281 4.140625 -2.09375 C 4.035156 -2.207031 3.898438 -2.289062 3.734375 -2.34375 C 3.566406 -2.394531 3.195312 -2.492188 2.625 -2.640625 C 1.769531 -2.835938 1.203125 -3.082031 0.921875 -3.375 C 0.648438 -3.664062 0.515625 -4.015625 0.515625 -4.421875 C 0.515625 -4.921875 0.710938 -5.332031 1.109375 -5.65625 C 1.515625 -5.988281 2.054688 -6.15625 2.734375 -6.15625 C 3.453125 -6.15625 4.007812 -6.015625 4.40625 -5.734375 C 4.8125 -5.453125 5.050781 -5.03125 5.125 -4.46875 Z M 4.125 -4.328125 "/></g></g></g><g fill="#000000" fill-opacity="1"><g transform="translate(200.174451, 191.624987)"><g><path d="M 6 -2.75 L 1.5 -2.75 C 1.539062 -2.082031 1.726562 -1.570312 2.0625 -1.21875 C 2.40625 -0.875 2.828125 -0.703125 3.328125 -0.703125 C 3.722656 -0.703125 4.050781 -0.800781 4.3125 -1 C 4.570312 -1.207031 4.773438 -1.519531 4.921875 -1.9375 L 5.96875 -1.8125 C 5.800781 -1.1875 5.488281 -0.703125 5.03125 -0.359375 C 4.582031 -0.0234375 4.015625 0.140625 3.328125 0.140625 C 2.429688 0.140625 1.726562 -0.132812 1.21875 -0.6875 C 0.707031 -1.238281 0.453125 -1.992188 0.453125 -2.953125 C 0.453125 -3.898438 0.695312 -4.671875 1.1875 -5.265625 C 1.6875 -5.859375 2.382812 -6.15625 3.28125 -6.15625 C 3.71875 -6.15625 4.140625 -6.054688 4.546875 -5.859375 C 4.953125 -5.671875 5.296875 -5.34375 5.578125 -4.875 C 5.859375 -4.414062 6 -3.707031 6 -2.75 Z M 4.953125 -3.59375 C 4.910156 -4.195312 4.71875 -4.632812 4.375 -4.90625 C 4.039062 -5.175781 3.675781 -5.3125 3.28125 -5.3125 C 2.800781 -5.3125 2.40625 -5.148438 2.09375 -4.828125 C 1.78125 -4.515625 1.597656 -4.101562 1.546875 -3.59375 Z M 4.953125 -3.59375 "/></g></g></g></svg>