<svg xmlns="http://www.w3.org/2000/svg" xmlns:xlink="http://www.w3.org/1999/xlink" width="500" zoomAndPan="magnify" viewBox="0 0 375 374.999991" height="500" preserveAspectRatio="xMidYMid meet" version="1.0"><defs><g/></defs><path fill="#000000" d="M 153.121094 207.449219 L 154.421875 208.734375 L 154.550781 208.863281 C 158.59375 213.050781 158.550781 219.796875 154.421875 223.929688 C 150.292969 228.058594 143.550781 228.101562 139.363281 224.058594 L 139.234375 223.929688 L 137.933594 222.644531 L 134.398438 219.089844 C 130.222656 214.914062 130.222656 208.085938 134.398438 203.894531 C 138.570312 199.722656 145.414062 199.722656 149.585938 203.894531 Z M 224.757812 148.664062 L 226.015625 147.410156 L 227.457031 145.964844 L 240.699219 132.71875 C 244.871094 128.546875 244.871094 121.714844 240.699219 117.527344 C 236.511719 113.351562 229.683594 113.351562 225.507812 117.527344 L 212.269531 130.769531 L 210.828125 132.214844 L 209.570312 133.472656 L 201.976562 141.070312 C 197.804688 145.242188 197.804688 152.074219 201.976562 156.261719 L 209.570312 163.859375 L 210.929688 165.203125 L 225.609375 179.890625 C 229.78125 184.066406 236.613281 184.066406 240.796875 179.890625 C 244.972656 175.71875 244.972656 168.871094 240.796875 164.699219 L 226.117188 150.007812 Z M 135.003906 117.628906 L 135.003906 117.613281 C 139.175781 113.4375 146.019531 113.4375 150.191406 117.613281 L 240.597656 208.070312 C 244.78125 212.242188 244.78125 219.089844 240.597656 223.265625 C 236.425781 227.4375 229.59375 227.4375 225.410156 223.265625 L 135.003906 132.808594 C 130.832031 128.632812 130.832031 121.800781 135.003906 117.628906 Z M 134.875 160.925781 C 139.046875 156.753906 145.875 156.753906 150.0625 160.925781 L 160.355469 171.226562 L 182.632812 193.511719 L 197.3125 208.199219 C 201.484375 212.375 201.484375 219.21875 197.3125 223.394531 C 193.128906 227.566406 186.296875 227.566406 182.125 223.394531 L 167.441406 208.707031 L 145.167969 186.417969 L 134.875 176.121094 C 130.699219 171.949219 130.699219 165.101562 134.875 160.925781 Z M 134.875 160.925781 " fill-opacity="1" fill-rule="evenodd"/><g fill="#000000" fill-opacity="1"><g transform="translate(131.765953, 255.403882)"><g><path d="M 1.328125 0 L 1.328125 -13.640625 L 3.8125 -13.640625 L 3.8125 -1.953125 L 9.859375 -1.953125 L 9.859375 0 Z M 1.328125 0 "/></g></g></g><g fill="#000000" fill-opacity="1"><g transform="translate(145.519535, 255.403882)"><g><path d="M 1.328125 0 L 1.328125 -13.640625 L 3.8125 -13.640625 L 3.8125 0 Z M 1.328125 0 "/></g></g></g><g fill="#000000" fill-opacity="1"><g transform="translate(153.682837, 255.403882)"><g><path d="M 1.328125 0 L 1.328125 -13.640625 L 3.8125 -13.640625 L 10.234375 -4.03125 L 10.234375 -13.640625 L 12.71875 -13.640625 L 12.71875 0 L 10.234375 0 L 3.8125 -9.59375 L 3.8125 0 Z M 1.328125 0 "/></g></g></g><g fill="#000000" fill-opacity="1"><g transform="translate(170.747728, 255.403882)"><g><path d="M 1.328125 0 L 1.328125 -13.640625 L 10.234375 -13.640625 L 10.234375 -11.625 L 3.8125 -11.625 L 3.8125 -7.890625 L 9.640625 -7.890625 L 9.640625 -5.9375 L 3.8125 -5.9375 L 3.8125 -2 L 10.234375 -2 L 10.234375 0 Z M 1.328125 0 "/></g></g></g><g fill="#000000" fill-opacity="1"><g transform="translate(185.025853, 255.403882)"><g><path d="M 4.640625 0 L 4.640625 -12.296875 L 0.5625 -12.296875 L 0.5625 -13.640625 L 10.34375 -13.640625 L 10.34375 -12.296875 L 6.28125 -12.296875 L 6.28125 0 Z M 4.640625 0 "/></g></g></g><g fill="#000000" fill-opacity="1"><g transform="translate(198.954734, 255.403882)"><g><path d="M 1.4375 0 L 1.4375 -13.640625 L 9.875 -13.640625 L 9.875 -12.296875 L 3.078125 -12.296875 L 3.078125 -7.546875 L 9.296875 -7.546875 L 9.296875 -6.21875 L 3.078125 -6.21875 L 3.078125 -1.34375 L 9.875 -1.34375 L 9.875 0 Z M 1.4375 0 "/></g></g></g><g fill="#000000" fill-opacity="1"><g transform="translate(212.961532, 255.403882)"><g><path d="M 7.421875 0.234375 C 6.085938 0.234375 4.9375 -0.0625 3.96875 -0.65625 C 3 -1.25 2.25 -2.070312 1.71875 -3.125 C 1.1875 -4.1875 0.921875 -5.414062 0.921875 -6.8125 C 0.921875 -8.207031 1.1875 -9.429688 1.71875 -10.484375 C 2.25 -11.546875 3 -12.375 3.96875 -12.96875 C 4.9375 -13.570312 6.085938 -13.875 7.421875 -13.875 C 8.984375 -13.875 10.253906 -13.5 11.234375 -12.75 C 12.210938 -12 12.835938 -10.957031 13.109375 -9.625 L 11.296875 -9.625 C 11.085938 -10.46875 10.660156 -11.144531 10.015625 -11.65625 C 9.378906 -12.175781 8.515625 -12.4375 7.421875 -12.4375 C 6.453125 -12.4375 5.601562 -12.210938 4.875 -11.765625 C 4.144531 -11.316406 3.582031 -10.671875 3.1875 -9.828125 C 2.789062 -8.992188 2.59375 -7.988281 2.59375 -6.8125 C 2.59375 -5.644531 2.789062 -4.640625 3.1875 -3.796875 C 3.582031 -2.960938 4.144531 -2.320312 4.875 -1.875 C 5.601562 -1.425781 6.453125 -1.203125 7.421875 -1.203125 C 8.515625 -1.203125 9.378906 -1.453125 10.015625 -1.953125 C 10.660156 -2.453125 11.085938 -3.117188 11.296875 -3.953125 L 13.109375 -3.953125 C 12.835938 -2.640625 12.210938 -1.613281 11.234375 -0.875 C 10.253906 -0.132812 8.984375 0.234375 7.421875 0.234375 Z M 7.421875 0.234375 "/></g></g></g><g fill="#000000" fill-opacity="1"><g transform="translate(230.006946, 255.403882)"><g><path d="M 1.4375 0 L 1.4375 -13.640625 L 3.078125 -13.640625 L 3.078125 -7.625 L 10.15625 -7.625 L 10.15625 -13.640625 L 11.78125 -13.640625 L 11.78125 0 L 10.15625 0 L 10.15625 -6.28125 L 3.078125 -6.28125 L 3.078125 0 Z M 1.4375 0 "/></g></g></g></svg>